<mxfile host="app.diagrams.net" modified="2022-01-28T03:24:06.799Z" agent="5.0 (Macintosh; Intel Mac OS X 10_15_7) AppleWebKit/537.36 (KHTML, like Gecko) Chrome/97.0.4692.71 Safari/537.36" etag="SRvUsEiANA2jJb59UEoI" version="16.4.11" type="github">
  <diagram id="GHZjG3nToGS60NQF9C1E" name="第 1 页">
    <mxGraphModel dx="852" dy="429" grid="1" gridSize="10" guides="1" tooltips="1" connect="1" arrows="1" fold="1" page="1" pageScale="1" pageWidth="850" pageHeight="1100" math="0" shadow="0">
      <root>
        <mxCell id="0" />
        <mxCell id="1" parent="0" />
        <mxCell id="Jjaj_gzugbMVMEQFxrty-10" style="rounded=0;orthogonalLoop=1;jettySize=auto;html=1;exitX=1;exitY=0.3333333333333333;exitDx=0;exitDy=0;exitPerimeter=0;entryX=0;entryY=0.5;entryDx=0;entryDy=0;fontSize=14;endArrow=none;endFill=0;" edge="1" parent="1" source="Jjaj_gzugbMVMEQFxrty-1" target="Jjaj_gzugbMVMEQFxrty-5">
          <mxGeometry relative="1" as="geometry" />
        </mxCell>
        <mxCell id="Jjaj_gzugbMVMEQFxrty-11" style="edgeStyle=none;rounded=0;orthogonalLoop=1;jettySize=auto;html=1;exitX=1;exitY=0.3333333333333333;exitDx=0;exitDy=0;exitPerimeter=0;entryX=0;entryY=0.5;entryDx=0;entryDy=0;fontSize=14;endArrow=none;endFill=0;" edge="1" parent="1" source="Jjaj_gzugbMVMEQFxrty-1" target="Jjaj_gzugbMVMEQFxrty-7">
          <mxGeometry relative="1" as="geometry" />
        </mxCell>
        <mxCell id="Jjaj_gzugbMVMEQFxrty-12" style="edgeStyle=none;rounded=0;orthogonalLoop=1;jettySize=auto;html=1;exitX=1;exitY=0.3333333333333333;exitDx=0;exitDy=0;exitPerimeter=0;entryX=0;entryY=0.5;entryDx=0;entryDy=0;fontSize=14;endArrow=none;endFill=0;" edge="1" parent="1" source="Jjaj_gzugbMVMEQFxrty-1" target="Jjaj_gzugbMVMEQFxrty-8">
          <mxGeometry relative="1" as="geometry" />
        </mxCell>
        <mxCell id="Jjaj_gzugbMVMEQFxrty-1" value="机构用户" style="shape=umlActor;verticalLabelPosition=bottom;verticalAlign=top;html=1;outlineConnect=0;" vertex="1" parent="1">
          <mxGeometry x="140" y="140" width="30" height="60" as="geometry" />
        </mxCell>
        <mxCell id="Jjaj_gzugbMVMEQFxrty-21" style="edgeStyle=none;rounded=0;orthogonalLoop=1;jettySize=auto;html=1;exitX=0;exitY=0.3333333333333333;exitDx=0;exitDy=0;exitPerimeter=0;entryX=1;entryY=0.5;entryDx=0;entryDy=0;fontSize=14;endArrow=none;endFill=0;" edge="1" parent="1" source="Jjaj_gzugbMVMEQFxrty-3" target="Jjaj_gzugbMVMEQFxrty-20">
          <mxGeometry relative="1" as="geometry" />
        </mxCell>
        <mxCell id="Jjaj_gzugbMVMEQFxrty-3" value="增值服务用户" style="shape=umlActor;verticalLabelPosition=bottom;verticalAlign=top;html=1;outlineConnect=0;" vertex="1" parent="1">
          <mxGeometry x="690" y="150" width="30" height="60" as="geometry" />
        </mxCell>
        <mxCell id="Jjaj_gzugbMVMEQFxrty-4" value="" style="swimlane;startSize=0;" vertex="1" parent="1">
          <mxGeometry x="250" y="70" width="390" height="230" as="geometry" />
        </mxCell>
        <mxCell id="Jjaj_gzugbMVMEQFxrty-5" value="管理订阅行业" style="rounded=1;whiteSpace=wrap;html=1;" vertex="1" parent="Jjaj_gzugbMVMEQFxrty-4">
          <mxGeometry x="50" y="50" width="115" height="40" as="geometry" />
        </mxCell>
        <mxCell id="Jjaj_gzugbMVMEQFxrty-7" value="查看订阅行业的热点概念" style="rounded=1;whiteSpace=wrap;html=1;" vertex="1" parent="Jjaj_gzugbMVMEQFxrty-4">
          <mxGeometry x="50" y="110" width="115" height="40" as="geometry" />
        </mxCell>
        <mxCell id="Jjaj_gzugbMVMEQFxrty-8" value="查看热点概念趋势" style="rounded=1;whiteSpace=wrap;html=1;" vertex="1" parent="Jjaj_gzugbMVMEQFxrty-4">
          <mxGeometry x="50" y="170" width="115" height="40" as="geometry" />
        </mxCell>
        <mxCell id="Jjaj_gzugbMVMEQFxrty-9" value="查看概念相关研报" style="rounded=1;whiteSpace=wrap;html=1;" vertex="1" parent="Jjaj_gzugbMVMEQFxrty-4">
          <mxGeometry x="230" y="170" width="115" height="40" as="geometry" />
        </mxCell>
        <mxCell id="Jjaj_gzugbMVMEQFxrty-16" value="扩展" style="endArrow=classic;html=1;rounded=0;fontSize=14;exitX=1;exitY=0.5;exitDx=0;exitDy=0;entryX=0.5;entryY=0;entryDx=0;entryDy=0;" edge="1" parent="Jjaj_gzugbMVMEQFxrty-4" source="Jjaj_gzugbMVMEQFxrty-7" target="Jjaj_gzugbMVMEQFxrty-9">
          <mxGeometry relative="1" as="geometry">
            <mxPoint x="120" y="150" as="sourcePoint" />
            <mxPoint x="220" y="150" as="targetPoint" />
          </mxGeometry>
        </mxCell>
        <mxCell id="Jjaj_gzugbMVMEQFxrty-17" value="扩展" style="edgeLabel;resizable=0;html=1;align=center;verticalAlign=middle;fontSize=14;" connectable="0" vertex="1" parent="Jjaj_gzugbMVMEQFxrty-16">
          <mxGeometry relative="1" as="geometry" />
        </mxCell>
        <mxCell id="Jjaj_gzugbMVMEQFxrty-18" value="扩展" style="endArrow=classic;html=1;rounded=0;fontSize=14;exitX=1;exitY=0.5;exitDx=0;exitDy=0;entryX=0;entryY=0.5;entryDx=0;entryDy=0;" edge="1" parent="Jjaj_gzugbMVMEQFxrty-4" source="Jjaj_gzugbMVMEQFxrty-8" target="Jjaj_gzugbMVMEQFxrty-9">
          <mxGeometry relative="1" as="geometry">
            <mxPoint x="210" y="140" as="sourcePoint" />
            <mxPoint x="297.5" y="180" as="targetPoint" />
          </mxGeometry>
        </mxCell>
        <mxCell id="Jjaj_gzugbMVMEQFxrty-19" value="扩展" style="edgeLabel;resizable=0;html=1;align=center;verticalAlign=middle;fontSize=14;" connectable="0" vertex="1" parent="Jjaj_gzugbMVMEQFxrty-18">
          <mxGeometry relative="1" as="geometry" />
        </mxCell>
        <mxCell id="Jjaj_gzugbMVMEQFxrty-20" value="查看热点概念趋势资讯报告" style="rounded=1;whiteSpace=wrap;html=1;" vertex="1" parent="Jjaj_gzugbMVMEQFxrty-4">
          <mxGeometry x="230" y="60" width="115" height="40" as="geometry" />
        </mxCell>
        <mxCell id="Jjaj_gzugbMVMEQFxrty-6" value="&lt;h1&gt;&lt;font style=&quot;font-size: 14px&quot;&gt;智能投研热点挖掘系统&lt;/font&gt;&lt;/h1&gt;" style="text;html=1;strokeColor=none;fillColor=none;spacing=5;spacingTop=-20;whiteSpace=wrap;overflow=hidden;rounded=0;" vertex="1" parent="1">
          <mxGeometry x="260" y="70" width="240" height="40" as="geometry" />
        </mxCell>
      </root>
    </mxGraphModel>
  </diagram>
</mxfile>
